<svg version="1.1" xmlns="http://www.w3.org/2000/svg" xmlns:xlink="http://www.w3.org/1999/xlink" role="img" width="246" height="90" viewbox="0 0 246 90"><title>YOLOv5</title><desc>Generated by logo.svg, https://github.com/bubkoo/logo.svg</desc><path fill="#2b68a7" d="M7.34 70.35L7.91 67.66L9.38 67.66Q11.50 67.66 13.19 66.96Q14.89 66.26 15.53 63.38L18.02 51.60L10.60 30.74Q9.96 28.88 9.29 28.11Q8.62 27.34 6.76 27.34L5.93 27.34L6.50 24.66L23.78 24.66L23.21 27.34L20.01 27.34Q17.38 27.34 17.38 29.07Q17.38 29.90 17.61 30.80Q17.83 31.70 18.22 32.78L21.10 41.36Q21.74 43.34 22.25 45.39Q22.76 47.44 22.82 49.04Q23.59 47.70 24.74 46.16Q25.90 44.62 27.62 42.32L33.70 34.19Q34.92 32.59 35.50 31.31Q36.07 30.03 36.07 29.01Q36.07 28.11 35.40 27.73Q34.73 27.34 33 27.34L30.63 27.34L31.21 24.66L47.02 24.66L46.44 27.34L45.22 27.34Q43.75 27.34 42.47 28.56Q41.19 29.78 39.40 32.21L24.49 51.73L21.99 63.31Q21.74 64.34 21.74 65.10Q21.74 66.77 23.02 67.22Q24.30 67.66 26.34 67.66L27.82 67.66L27.24 70.35L7.34 70.35ZM59.18 71.06Q54.44 71.06 50.63 69.04Q46.82 67.02 44.62 63.06Q42.41 59.09 42.41 53.33Q42.41 49.62 43.43 45.58Q44.46 41.55 46.54 37.71Q48.62 33.87 51.69 30.77Q54.76 27.66 58.82 25.81Q62.89 23.95 68.01 23.95Q72.42 23.95 76.20 25.81Q79.98 27.66 82.28 31.54Q84.58 35.41 84.58 41.55Q84.58 45.07 83.59 49.10Q82.60 53.14 80.58 57.01Q78.57 60.88 75.53 64.08Q72.49 67.28 68.39 69.17Q64.30 71.06 59.18 71.06M59.56 67.54Q63.27 67.54 66.18 65.68Q69.10 63.82 71.24 60.78Q73.38 57.74 74.79 54.06Q76.20 50.38 76.87 46.67Q77.54 42.96 77.54 39.82Q77.54 33.36 74.70 30.38Q71.85 27.41 67.50 27.41Q63.78 27.41 60.84 29.26Q57.90 31.12 55.75 34.16Q53.61 37.20 52.20 40.88Q50.79 44.56 50.09 48.27Q49.38 51.98 49.38 55.12Q49.38 59.47 50.73 62.22Q52.07 64.98 54.41 66.26Q56.74 67.54 59.56 67.54ZM85.29 70.35L85.86 67.66L86.70 67.66Q88.81 67.66 90.50 66.86Q92.20 66.06 92.84 63.06L99.50 31.70Q99.75 30.67 99.75 29.90Q99.75 28.24 98.47 27.79Q97.19 27.34 95.14 27.34L94.31 27.34L94.89 24.66L113.51 24.66L112.94 27.34L112.10 27.34Q109.99 27.34 108.30 28.08Q106.60 28.82 105.96 31.70L98.41 67.15L111.02 67.15Q113.96 67.15 115.56 65.30Q117.16 63.44 117.86 61.39L119.53 56.59L122.86 56.59L119.53 70.35L85.29 70.35ZM146.54 71.06Q141.80 71.06 137.99 69.04Q134.18 67.02 131.98 63.06Q129.77 59.09 129.77 53.33Q129.77 49.62 130.79 45.58Q131.82 41.55 133.90 37.71Q135.98 33.87 139.05 30.77Q142.12 27.66 146.18 25.81Q150.25 23.95 155.37 23.95Q159.78 23.95 163.56 25.81Q167.34 27.66 169.64 31.54Q171.94 35.41 171.94 41.55Q171.94 45.07 170.95 49.10Q169.96 53.14 167.94 57.01Q165.93 60.88 162.89 64.08Q159.85 67.28 155.75 69.17Q151.66 71.06 146.54 71.06M146.92 67.54Q150.63 67.54 153.54 65.68Q156.46 63.82 158.60 60.78Q160.74 57.74 162.15 54.06Q163.56 50.38 164.23 46.67Q164.90 42.96 164.90 39.82Q164.90 33.36 162.06 30.38Q159.21 27.41 154.86 27.41Q151.14 27.41 148.20 29.26Q145.26 31.12 143.11 34.16Q140.97 37.20 139.56 40.88Q138.15 44.56 137.45 48.27Q136.74 51.98 136.74 55.12Q136.74 59.47 138.09 62.22Q139.43 64.98 141.77 66.26Q144.10 67.54 146.92 67.54ZM184.55 70.93L180.07 42.13Q179.75 40.14 178.63 39.44Q177.51 38.74 175.66 38.74L175.02 38.74L175.53 36.05L185.13 36.05L188.07 54.99Q188.39 57.17 188.68 59.38Q188.97 61.58 189.19 63.41Q189.42 65.23 189.54 66.32L189.74 66.32Q192.04 64.08 194.18 61.33Q196.33 58.58 197.96 55.73Q199.59 52.88 200.55 50.26Q201.51 47.63 201.51 45.71Q201.51 43.47 200.42 42.16Q199.34 40.85 197.54 40.85Q197.54 38.22 198.95 36.98Q200.36 35.73 201.90 35.73Q203.88 35.73 205.06 37.10Q206.25 38.48 206.25 41.68Q206.25 45.46 204.62 49.55Q202.98 53.65 200.46 57.58Q197.93 61.52 195.21 64.82Q192.49 68.11 190.31 70.29L184.55 70.93ZM220.07 70.99Q213.86 70.99 211.37 69.10Q208.87 67.22 208.87 64.59Q208.87 62.80 210.02 61.71Q211.18 60.62 213.67 60.62Q213.74 62.29 214.31 63.86Q214.89 65.42 216.39 66.45Q217.90 67.47 220.65 67.47Q225.51 67.47 228.55 64.40Q231.59 61.33 231.59 55.25Q231.59 50.90 229.26 48.72Q226.92 46.54 223.40 46.54Q220.97 46.54 219.37 46.99Q217.77 47.44 216.42 47.95L214.25 47.50L221.10 24.66L242.47 24.66L240.74 34.32L238.06 34.32Q238.12 33.49 238.18 32.59Q238.25 31.70 238.25 31.31Q238.25 30.67 237.64 30.22Q237.03 29.78 235.30 29.78L222.89 29.78L218.66 44.05Q219.75 43.73 221.19 43.38Q222.63 43.02 224.81 43.02Q230.95 43.02 234.60 46.06Q238.25 49.10 238.25 54.80Q238.25 59.41 236.07 63.09Q233.90 66.77 229.83 68.88Q225.77 70.99 220.07 70.99Z"></path></svg>